# xmcd
#
# Track frame offsets: 
#        150
#        24087
#        40487
#        54325
#        68612
#        85137
#        105487
#        117737
#        134987
#        149187
#        164200
#        177075
#        190412
#        210612
#        224187
#        237900
#
# Disc length: 3369 seconds
#
# Revision: 8
# Processed by: cddbd v1.5.2PL0 Copyright (c) Steve Scherf et al.
# Submitted via: ExactAudioCopyFreeDBPlugin 1.0
#
DISCID=010d2710
DTITLE=Various Artist - American Style - The Best Of New Country Musi
DTITLE=c [CD 3)
DYEAR=1997
DGENRE=Country
TTITLE0=Johnny Cash - Highway Patrolman
TTITLE1=Ricky van Shelton - Backroads
TTITLE2=Ricky Skaggs - Hummingbird
TTITLE3=The O'kanes - The Better To Love You
TTITLE4=Ty Herndon - What Mattered Most
TTITLE5=Rosanne Cash - I Don't Have To Crawl
TTITLE6=Wade Hays - Don't Stop
TTITLE7=Don King - Over My Head
TTITLE8=Mike Reid - Walk On Faith
TTITLE9=Doug Stone - I'd Be Better Off (In A Pine Box)
TTITLE10=Sweethearts of the Rodeo - Devil And Your Deep Blue Eyes
TTITLE11=Vern Gosdin - I Knew My Day Would Come
TTITLE12=Chet Atkins and Steve Wariner - Read My Licks
TTITLE13=Larry Gatlin and The Gatlin Brothers - Love Of A Lifetime
TTITLE14=Stephanie Bentley - Who's That Girl
TTITLE15=Tom Wopat - Too Many Honky Tonks (On My Way Home)
EXTD=
EXTT0=
EXTT1=
EXTT2=
EXTT3=
EXTT4=
EXTT5=
EXTT6=
EXTT7=
EXTT8=
EXTT9=
EXTT10=
EXTT11=
EXTT12=
EXTT13=
EXTT14=
EXTT15=
PLAYORDER=
